

Cover:
 
http://leetleech.org/images/40802385161037506180.jpg

Release info:

General
Format                                   : Matroska
Format version                           : Version 2
File size                                : 696 MiB
Duration                                 : 1h 28mn
Overall bit rate                         : 1 094 Kbps

Video
ID                                       : 1
Format                                   : MPEG-4 Visual
Format profile                           : Advanced Simple@L5
Format settings, BVOP                    : Yes
Format settings, QPel                    : No
Format settings, GMC                     : No warppoints
Format settings, Matrix                  : Default (H.263)
Codec ID                                 : V_MS/VFW/FOURCC / XVID
Codec ID/Hint                            : XviD
Duration                                 : 1h 28mn
Bit rate                                 : 944 Kbps
Width                                    : 624 pixels
Height                                   : 352 pixels
Display aspect ratio                     : 16:9
Frame rate mode                          : Constant
Frame rate                               : 25.000 fps
Color space                              : YUV
Chroma subsampling                       : 4:2:0
Bit depth                                : 8 bits
Scan type                                : Progressive
Compression mode                         : Lossy
Bits/(Pixel*Frame)                       : 0.172
Stream size                              : 601 MiB (86%)
Writing library                          : XviD 64
Language                                 : English
Default                                  : Yes
Forced                                   : No

Audio
ID                                       : 2
Format                                   : MPEG Audio
Format version                           : Version 1
Format profile                           : Layer 3
Mode                                     : Joint stereo
Mode extension                           : MS Stereo
Muxing mode                              : Header stripping
Codec ID                                 : A_MPEG/L3
Codec ID/Hint                            : MP3
Duration                                 : 1h 28mn
Bit rate mode                            : Constant
Bit rate                                 : 128 Kbps
Channel(s)                               : 2 channels
Sampling rate                            : 44.1 KHz
Compression mode                         : Lossy
Stream size                              : 81.5 MiB (12%)
Language                                 : English
Default                                  : Yes
Forced                                   : No


Source:
credit to original movie ripper EXViD (Thanks)

IMDB Info:

Director: Ben Stassen
Writer: Domonic Paris
Stars: Pat Carroll, Carlos McCullers II and Cinda Adams 
Genres: Animation | Adventure
 
http://www.imdb.com/title/tt2288005/

Screen Shot:
 
http://www.shotpix.com/images/13438163745758931794.png 
http://www.shotpix.com/images/45667103899105288727.png 
http://www.shotpix.com/images/21073630813814005397.png 
http://www.shotpix.com/images/02399838148144898886.png 
http://www.shotpix.com/images/24557139502402685961.png 
http://www.shotpix.com/images/03963267120366278328.png